<svg width="143" height="76" viewBox="0 0 143 76" fill="none" xmlns="http://www.w3.org/2000/svg">
<g filter="url(#filter0_diiii_45_563)">
<rect x="12" y="8" width="119" height="52" rx="12" fill="url(#paint0_linear_45_563)" shape-rendering="crispEdges"/>
<mask id="path-2-outside-1_45_563" maskUnits="userSpaceOnUse" x="29" y="24" width="86" height="19" fill="black">
<rect fill="white" x="29" y="24" width="86" height="19"/>
<path d="M40.4239 34.02H39.5239L43.7039 39H40.7239L36.5439 34.02H31.9439V39H29.4039V25H40.4239C41.9039 25 43.1039 26.2 43.1039 27.68V31.32C43.1039 32.82 41.9039 34.02 40.4239 34.02ZM31.9439 31.62H39.9839C40.3039 31.62 40.5839 31.36 40.5839 31.04V27.98C40.5839 27.64 40.3039 27.38 39.9839 27.38H31.9439V31.62ZM55.4906 34.76H48.0506V36.32C48.0506 36.64 48.3106 36.92 48.6306 36.92H55.1906V39H48.1906C46.7106 39 45.5106 37.8 45.5106 36.32V31.26C45.5106 29.78 46.7106 28.58 48.1906 28.58H52.8106C54.2906 28.58 55.4906 29.78 55.4906 31.26V34.76ZM48.0506 31.26V32.82H52.9506V31.26C52.9506 30.92 52.6906 30.66 52.3706 30.66H48.6306C48.3106 30.66 48.0506 30.92 48.0506 31.26ZM65.5591 28.58H68.0791V39.9C68.0791 41.38 66.8791 42.58 65.3991 42.58H58.5591V40.48H64.9591C65.2791 40.48 65.5591 40.22 65.5591 39.9V37.8L64.3591 39H60.3391C58.8591 39 57.6591 37.8 57.6591 36.32V31.26C57.6591 29.78 58.8591 28.58 60.3391 28.58H64.3591L65.5591 29.76V28.58ZM65.5591 36.32V31.26C65.5591 30.92 65.2791 30.66 64.9591 30.66H60.7791C60.4591 30.66 60.1991 30.92 60.1991 31.26V36.32C60.1991 36.64 60.4591 36.92 60.7791 36.92H64.9591C65.2791 36.92 65.5591 36.64 65.5591 36.32ZM73.1911 27.08H70.6511V25H73.1911V27.08ZM73.1911 39H70.6511V28.58H73.1911V39ZM82.7088 32.7C84.1888 32.7 85.3888 33.9 85.3888 35.38V36.32C85.3888 37.8 84.1888 39 82.7088 39H75.7088V36.92H82.2688C82.5888 36.92 82.8488 36.64 82.8488 36.32V35.46C82.8488 35.14 82.5888 34.86 82.2688 34.86H78.0888C76.6088 34.86 75.4088 33.66 75.4088 32.18V31.26C75.4088 29.78 76.6088 28.58 78.0888 28.58H84.9488V30.66H78.5288C78.2088 30.66 77.9488 30.92 77.9488 31.26V32.12C77.9488 32.44 78.2088 32.7 78.5288 32.7H82.7088ZM93.9852 30.66H90.7252V36.32C90.7252 36.64 90.9852 36.92 91.3052 36.92H93.4052V39H90.8652C89.3852 39 88.1852 37.8 88.1852 36.32V30.66H86.8452V28.58H88.1852V25.9H90.7252V28.58H93.9852V30.66ZM105.725 34.76H98.285V36.32C98.285 36.64 98.545 36.92 98.865 36.92H105.425V39H98.425C96.945 39 95.745 37.8 95.745 36.32V31.26C95.745 29.78 96.945 28.58 98.425 28.58H103.045C104.525 28.58 105.725 29.78 105.725 31.26V34.76ZM98.285 31.26V32.82H103.185V31.26C103.185 30.92 102.925 30.66 102.605 30.66H98.865C98.545 30.66 98.285 30.92 98.285 31.26ZM111.773 28.58H114.613V30.66H111.173C110.853 30.66 110.593 30.92 110.593 31.26V39H108.053V28.58H110.593V29.76L111.773 28.58Z"/>
</mask>
<path d="M40.4239 34.02H39.5239L43.7039 39H40.7239L36.5439 34.02H31.9439V39H29.4039V25H40.4239C41.9039 25 43.1039 26.2 43.1039 27.68V31.32C43.1039 32.82 41.9039 34.02 40.4239 34.02ZM31.9439 31.62H39.9839C40.3039 31.62 40.5839 31.36 40.5839 31.04V27.98C40.5839 27.64 40.3039 27.38 39.9839 27.38H31.9439V31.62ZM55.4906 34.76H48.0506V36.32C48.0506 36.64 48.3106 36.92 48.6306 36.92H55.1906V39H48.1906C46.7106 39 45.5106 37.8 45.5106 36.32V31.26C45.5106 29.78 46.7106 28.58 48.1906 28.58H52.8106C54.2906 28.58 55.4906 29.78 55.4906 31.26V34.76ZM48.0506 31.26V32.82H52.9506V31.26C52.9506 30.92 52.6906 30.66 52.3706 30.66H48.6306C48.3106 30.66 48.0506 30.92 48.0506 31.26ZM65.5591 28.58H68.0791V39.9C68.0791 41.38 66.8791 42.58 65.3991 42.58H58.5591V40.48H64.9591C65.2791 40.48 65.5591 40.22 65.5591 39.9V37.8L64.3591 39H60.3391C58.8591 39 57.6591 37.8 57.6591 36.32V31.26C57.6591 29.78 58.8591 28.58 60.3391 28.58H64.3591L65.5591 29.76V28.58ZM65.5591 36.32V31.26C65.5591 30.92 65.2791 30.66 64.9591 30.66H60.7791C60.4591 30.66 60.1991 30.92 60.1991 31.26V36.32C60.1991 36.64 60.4591 36.92 60.7791 36.92H64.9591C65.2791 36.92 65.5591 36.64 65.5591 36.32ZM73.1911 27.08H70.6511V25H73.1911V27.08ZM73.1911 39H70.6511V28.58H73.1911V39ZM82.7088 32.7C84.1888 32.7 85.3888 33.9 85.3888 35.38V36.32C85.3888 37.8 84.1888 39 82.7088 39H75.7088V36.92H82.2688C82.5888 36.92 82.8488 36.64 82.8488 36.32V35.46C82.8488 35.14 82.5888 34.86 82.2688 34.86H78.0888C76.6088 34.86 75.4088 33.66 75.4088 32.18V31.26C75.4088 29.78 76.6088 28.58 78.0888 28.58H84.9488V30.66H78.5288C78.2088 30.66 77.9488 30.92 77.9488 31.26V32.12C77.9488 32.44 78.2088 32.7 78.5288 32.7H82.7088ZM93.9852 30.66H90.7252V36.32C90.7252 36.64 90.9852 36.92 91.3052 36.92H93.4052V39H90.8652C89.3852 39 88.1852 37.8 88.1852 36.32V30.66H86.8452V28.58H88.1852V25.9H90.7252V28.58H93.9852V30.66ZM105.725 34.76H98.285V36.32C98.285 36.64 98.545 36.92 98.865 36.92H105.425V39H98.425C96.945 39 95.745 37.8 95.745 36.32V31.26C95.745 29.78 96.945 28.58 98.425 28.58H103.045C104.525 28.58 105.725 29.78 105.725 31.26V34.76ZM98.285 31.26V32.82H103.185V31.26C103.185 30.92 102.925 30.66 102.605 30.66H98.865C98.545 30.66 98.285 30.92 98.285 31.26ZM111.773 28.58H114.613V30.66H111.173C110.853 30.66 110.593 30.92 110.593 31.26V39H108.053V28.58H110.593V29.76L111.773 28.58Z" fill="#F9FAFB"/>
<path d="M39.5239 34.02V33.82H39.0949L39.3707 34.1486L39.5239 34.02ZM43.7039 39V39.2H44.1329L43.8571 38.8714L43.7039 39ZM40.7239 39L40.5707 39.1286L40.6307 39.2H40.7239V39ZM36.5439 34.02L36.6971 33.8914L36.6371 33.82H36.5439V34.02ZM31.9439 34.02V33.82H31.7439V34.02H31.9439ZM31.9439 39V39.2H32.1439V39H31.9439ZM29.4039 39H29.2039V39.2H29.4039V39ZM29.4039 25V24.8H29.2039V25H29.4039ZM31.9439 31.62H31.7439V31.82H31.9439V31.62ZM31.9439 27.38V27.18H31.7439V27.38H31.9439ZM40.4239 34.02V33.82H39.5239V34.02V34.22H40.4239V34.02ZM39.5239 34.02L39.3707 34.1486L43.5507 39.1286L43.7039 39L43.8571 38.8714L39.6771 33.8914L39.5239 34.02ZM43.7039 39V38.8H40.7239V39V39.2H43.7039V39ZM40.7239 39L40.8771 38.8714L36.6971 33.8914L36.5439 34.02L36.3907 34.1486L40.5707 39.1286L40.7239 39ZM36.5439 34.02V33.82H31.9439V34.02V34.22H36.5439V34.02ZM31.9439 34.02H31.7439V39H31.9439H32.1439V34.02H31.9439ZM31.9439 39V38.8H29.4039V39V39.2H31.9439V39ZM29.4039 39H29.6039V25H29.4039H29.2039V39H29.4039ZM29.4039 25V25.2H40.4239V25V24.8H29.4039V25ZM40.4239 25V25.2C41.7935 25.2 42.9039 26.3105 42.9039 27.68H43.1039H43.3039C43.3039 26.0895 42.0144 24.8 40.4239 24.8V25ZM43.1039 27.68H42.9039V31.32H43.1039H43.3039V27.68H43.1039ZM43.1039 31.32H42.9039C42.9039 32.7105 41.7925 33.82 40.4239 33.82V34.02V34.22C42.0153 34.22 43.3039 32.9295 43.3039 31.32H43.1039ZM31.9439 31.62V31.82H39.9839V31.62V31.42H31.9439V31.62ZM39.9839 31.62V31.82C40.4055 31.82 40.7839 31.4791 40.7839 31.04H40.5839H40.3839C40.3839 31.2409 40.2023 31.42 39.9839 31.42V31.62ZM40.5839 31.04H40.7839V27.98H40.5839H40.3839V31.04H40.5839ZM40.5839 27.98H40.7839C40.7839 27.5252 40.41 27.18 39.9839 27.18V27.38V27.58C40.1978 27.58 40.3839 27.7548 40.3839 27.98H40.5839ZM39.9839 27.38V27.18H31.9439V27.38V27.58H39.9839V27.38ZM31.9439 27.38H31.7439V31.62H31.9439H32.1439V27.38H31.9439ZM55.4906 34.76V34.96H55.6906V34.76H55.4906ZM48.0506 34.76V34.56H47.8506V34.76H48.0506ZM55.1906 36.92H55.3906V36.72H55.1906V36.92ZM55.1906 39V39.2H55.3906V39H55.1906ZM48.0506 32.82H47.8506V33.02H48.0506V32.82ZM52.9506 32.82V33.02H53.1506V32.82H52.9506ZM55.4906 34.76V34.56H48.0506V34.76V34.96H55.4906V34.76ZM48.0506 34.76H47.8506V36.32H48.0506H48.2506V34.76H48.0506ZM48.0506 36.32H47.8506C47.8506 36.7416 48.1915 37.12 48.6306 37.12V36.92V36.72C48.4297 36.72 48.2506 36.5384 48.2506 36.32H48.0506ZM48.6306 36.92V37.12H55.1906V36.92V36.72H48.6306V36.92ZM55.1906 36.92H54.9906V39H55.1906H55.3906V36.92H55.1906ZM55.1906 39V38.8H48.1906V39V39.2H55.1906V39ZM48.1906 39V38.8C46.8211 38.8 45.7106 37.6895 45.7106 36.32H45.5106H45.3106C45.3106 37.9105 46.6002 39.2 48.1906 39.2V39ZM45.5106 36.32H45.7106V31.26H45.5106H45.3106V36.32H45.5106ZM45.5106 31.26H45.7106C45.7106 29.8905 46.8211 28.78 48.1906 28.78V28.58V28.38C46.6002 28.38 45.3106 29.6695 45.3106 31.26H45.5106ZM48.1906 28.58V28.78H52.8106V28.58V28.38H48.1906V28.58ZM52.8106 28.58V28.78C54.1802 28.78 55.2906 29.8905 55.2906 31.26H55.4906H55.6906C55.6906 29.6695 54.4011 28.38 52.8106 28.38V28.58ZM55.4906 31.26H55.2906V34.76H55.4906H55.6906V31.26H55.4906ZM48.0506 31.26H47.8506V32.82H48.0506H48.2506V31.26H48.0506ZM48.0506 32.82V33.02H52.9506V32.82V32.62H48.0506V32.82ZM52.9506 32.82H53.1506V31.26H52.9506H52.7506V32.82H52.9506ZM52.9506 31.26H53.1506C53.1506 30.814 52.8055 30.46 52.3706 30.46V30.66V30.86C52.5758 30.86 52.7506 31.026 52.7506 31.26H52.9506ZM52.3706 30.66V30.46H48.6306V30.66V30.86H52.3706V30.66ZM48.6306 30.66V30.46C48.1958 30.46 47.8506 30.814 47.8506 31.26H48.0506H48.2506C48.2506 31.026 48.4255 30.86 48.6306 30.86V30.66ZM65.5591 28.58V28.38H65.3591V28.58H65.5591ZM68.0791 28.58H68.2791V28.38H68.0791V28.58ZM58.5591 42.58H58.3591V42.78H58.5591V42.58ZM58.5591 40.48V40.28H58.3591V40.48H58.5591ZM65.5591 37.8H65.7591V37.3172L65.4176 37.6586L65.5591 37.8ZM64.3591 39V39.2H64.4419L64.5005 39.1414L64.3591 39ZM64.3591 28.58L64.4993 28.4374L64.4409 28.38H64.3591V28.58ZM65.5591 29.76L65.4188 29.9026L65.7591 30.2372V29.76H65.5591ZM65.5591 28.58V28.78H68.0791V28.58V28.38H65.5591V28.58ZM68.0791 28.58H67.8791V39.9H68.0791H68.2791V28.58H68.0791ZM68.0791 39.9H67.8791C67.8791 41.2695 66.7686 42.38 65.3991 42.38V42.58V42.78C66.9895 42.78 68.2791 41.4905 68.2791 39.9H68.0791ZM65.3991 42.58V42.38H58.5591V42.58V42.78H65.3991V42.58ZM58.5591 42.58H58.7591V40.48H58.5591H58.3591V42.58H58.5591ZM58.5591 40.48V40.68H64.9591V40.48V40.28H58.5591V40.48ZM64.9591 40.48V40.68C65.3806 40.68 65.7591 40.3391 65.7591 39.9H65.5591H65.3591C65.3591 40.1009 65.1775 40.28 64.9591 40.28V40.48ZM65.5591 39.9H65.7591V37.8H65.5591H65.3591V39.9H65.5591ZM65.5591 37.8L65.4176 37.6586L64.2176 38.8586L64.3591 39L64.5005 39.1414L65.7005 37.9414L65.5591 37.8ZM64.3591 39V38.8H60.3391V39V39.2H64.3591V39ZM60.3391 39V38.8C58.9695 38.8 57.8591 37.6895 57.8591 36.32H57.6591H57.4591C57.4591 37.9105 58.7486 39.2 60.3391 39.2V39ZM57.6591 36.32H57.8591V31.26H57.6591H57.4591V36.32H57.6591ZM57.6591 31.26H57.8591C57.8591 29.8905 58.9695 28.78 60.3391 28.78V28.58V28.38C58.7486 28.38 57.4591 29.6695 57.4591 31.26H57.6591ZM60.3391 28.58V28.78H64.3591V28.58V28.38H60.3391V28.58ZM64.3591 28.58L64.2188 28.7226L65.4188 29.9026L65.5591 29.76L65.6993 29.6174L64.4993 28.4374L64.3591 28.58ZM65.5591 29.76H65.7591V28.58H65.5591H65.3591V29.76H65.5591ZM65.5591 36.32H65.7591V31.26H65.5591H65.3591V36.32H65.5591ZM65.5591 31.26H65.7591C65.7591 30.8052 65.3852 30.46 64.9591 30.46V30.66V30.86C65.173 30.86 65.3591 31.0348 65.3591 31.26H65.5591ZM64.9591 30.66V30.46H60.7791V30.66V30.86H64.9591V30.66ZM60.7791 30.66V30.46C60.3442 30.46 59.9991 30.814 59.9991 31.26H60.1991H60.3991C60.3991 31.026 60.5739 30.86 60.7791 30.86V30.66ZM60.1991 31.26H59.9991V36.32H60.1991H60.3991V31.26H60.1991ZM60.1991 36.32H59.9991C59.9991 36.7416 60.3399 37.12 60.7791 37.12V36.92V36.72C60.5782 36.72 60.3991 36.5384 60.3991 36.32H60.1991ZM60.7791 36.92V37.12H64.9591V36.92V36.72H60.7791V36.92ZM64.9591 36.92V37.12C65.3895 37.12 65.7591 36.7505 65.7591 36.32H65.5591H65.3591C65.3591 36.5295 65.1686 36.72 64.9591 36.72V36.92ZM73.1911 27.08V27.28H73.3911V27.08H73.1911ZM70.6511 27.08H70.4511V27.28H70.6511V27.08ZM70.6511 25V24.8H70.4511V25H70.6511ZM73.1911 25H73.3911V24.8H73.1911V25ZM73.1911 39V39.2H73.3911V39H73.1911ZM70.6511 39H70.4511V39.2H70.6511V39ZM70.6511 28.58V28.38H70.4511V28.58H70.6511ZM73.1911 28.58H73.3911V28.38H73.1911V28.58ZM73.1911 27.08V26.88H70.6511V27.08V27.28H73.1911V27.08ZM70.6511 27.08H70.8511V25H70.6511H70.4511V27.08H70.6511ZM70.6511 25V25.2H73.1911V25V24.8H70.6511V25ZM73.1911 25H72.9911V27.08H73.1911H73.3911V25H73.1911ZM73.1911 39V38.8H70.6511V39V39.2H73.1911V39ZM70.6511 39H70.8511V28.58H70.6511H70.4511V39H70.6511ZM70.6511 28.58V28.78H73.1911V28.58V28.38H70.6511V28.58ZM73.1911 28.58H72.9911V39H73.1911H73.3911V28.58H73.1911ZM75.7088 39H75.5088V39.2H75.7088V39ZM75.7088 36.92V36.72H75.5088V36.92H75.7088ZM84.9487 28.58H85.1488V28.38H84.9487V28.58ZM84.9487 30.66V30.86H85.1488V30.66H84.9487ZM82.7088 32.7V32.9C84.0783 32.9 85.1888 34.0105 85.1888 35.38H85.3887H85.5887C85.5887 33.7895 84.2992 32.5 82.7088 32.5V32.7ZM85.3887 35.38H85.1888V36.32H85.3887H85.5887V35.38H85.3887ZM85.3887 36.32H85.1888C85.1888 37.6895 84.0783 38.8 82.7088 38.8V39V39.2C84.2992 39.2 85.5887 37.9105 85.5887 36.32H85.3887ZM82.7088 39V38.8H75.7088V39V39.2H82.7088V39ZM75.7088 39H75.9087V36.92H75.7088H75.5088V39H75.7088ZM75.7088 36.92V37.12H82.2687V36.92V36.72H75.7088V36.92ZM82.2687 36.92V37.12C82.7079 37.12 83.0488 36.7416 83.0488 36.32H82.8488H82.6488C82.6488 36.5384 82.4696 36.72 82.2687 36.72V36.92ZM82.8488 36.32H83.0488V35.46H82.8488H82.6488V36.32H82.8488ZM82.8488 35.46H83.0488C83.0488 35.0384 82.7079 34.66 82.2687 34.66V34.86V35.06C82.4696 35.06 82.6488 35.2416 82.6488 35.46H82.8488ZM82.2687 34.86V34.66H78.0887V34.86V35.06H82.2687V34.86ZM78.0887 34.86V34.66C76.7192 34.66 75.6087 33.5495 75.6087 32.18H75.4087H75.2088C75.2088 33.7705 76.4983 35.06 78.0887 35.06V34.86ZM75.4087 32.18H75.6087V31.26H75.4087H75.2088V32.18H75.4087ZM75.4087 31.26H75.6087C75.6087 29.8905 76.7192 28.78 78.0887 28.78V28.58V28.38C76.4983 28.38 75.2088 29.6695 75.2088 31.26H75.4087ZM78.0887 28.58V28.78H84.9487V28.58V28.38H78.0887V28.58ZM84.9487 28.58H84.7488V30.66H84.9487H85.1488V28.58H84.9487ZM84.9487 30.66V30.46H78.5288V30.66V30.86H84.9487V30.66ZM78.5288 30.66V30.46C78.0939 30.46 77.7487 30.814 77.7487 31.26H77.9487H78.1488C78.1488 31.026 78.3236 30.86 78.5288 30.86V30.66ZM77.9487 31.26H77.7487V32.12H77.9487H78.1488V31.26H77.9487ZM77.9487 32.12H77.7487C77.7487 32.5505 78.0983 32.9 78.5288 32.9V32.7V32.5C78.3192 32.5 78.1488 32.3295 78.1488 32.12H77.9487ZM78.5288 32.7V32.9H82.7088V32.7V32.5H78.5288V32.7ZM93.9852 30.66V30.86H94.1852V30.66H93.9852ZM90.7252 30.66V30.46H90.5252V30.66H90.7252ZM93.4052 36.92H93.6052V36.72H93.4052V36.92ZM93.4052 39V39.2H93.6052V39H93.4052ZM88.1852 30.66H88.3852V30.46H88.1852V30.66ZM86.8452 30.66H86.6452V30.86H86.8452V30.66ZM86.8452 28.58V28.38H86.6452V28.58H86.8452ZM88.1852 28.58V28.78H88.3852V28.58H88.1852ZM88.1852 25.9V25.7H87.9852V25.9H88.1852ZM90.7252 25.9H90.9252V25.7H90.7252V25.9ZM90.7252 28.58H90.5252V28.78H90.7252V28.58ZM93.9852 28.58H94.1852V28.38H93.9852V28.58ZM93.9852 30.66V30.46H90.7252V30.66V30.86H93.9852V30.66ZM90.7252 30.66H90.5252V36.32H90.7252H90.9252V30.66H90.7252ZM90.7252 36.32H90.5252C90.5252 36.7416 90.866 37.12 91.3052 37.12V36.92V36.72C91.1043 36.72 90.9252 36.5384 90.9252 36.32H90.7252ZM91.3052 36.92V37.12H93.4052V36.92V36.72H91.3052V36.92ZM93.4052 36.92H93.2052V39H93.4052H93.6052V36.92H93.4052ZM93.4052 39V38.8H90.8652V39V39.2H93.4052V39ZM90.8652 39V38.8C89.4956 38.8 88.3852 37.6895 88.3852 36.32H88.1852H87.9852C87.9852 37.9105 89.2747 39.2 90.8652 39.2V39ZM88.1852 36.32H88.3852V30.66H88.1852H87.9852V36.32H88.1852ZM88.1852 30.66V30.46H86.8452V30.66V30.86H88.1852V30.66ZM86.8452 30.66H87.0452V28.58H86.8452H86.6452V30.66H86.8452ZM86.8452 28.58V28.78H88.1852V28.58V28.38H86.8452V28.58ZM88.1852 28.58H88.3852V25.9H88.1852H87.9852V28.58H88.1852ZM88.1852 25.9V26.1H90.7252V25.9V25.7H88.1852V25.9ZM90.7252 25.9H90.5252V28.58H90.7252H90.9252V25.9H90.7252ZM90.7252 28.58V28.78H93.9852V28.58V28.38H90.7252V28.58ZM93.9852 28.58H93.7852V30.66H93.9852H94.1852V28.58H93.9852ZM105.725 34.76V34.96H105.925V34.76H105.725ZM98.285 34.76V34.56H98.085V34.76H98.285ZM105.425 36.92H105.625V36.72H105.425V36.92ZM105.425 39V39.2H105.625V39H105.425ZM98.285 32.82H98.085V33.02H98.285V32.82ZM103.185 32.82V33.02H103.385V32.82H103.185ZM105.725 34.76V34.56H98.285V34.76V34.96H105.725V34.76ZM98.285 34.76H98.085V36.32H98.285H98.485V34.76H98.285ZM98.285 36.32H98.085C98.085 36.7416 98.4259 37.12 98.865 37.12V36.92V36.72C98.6641 36.72 98.485 36.5384 98.485 36.32H98.285ZM98.865 36.92V37.12H105.425V36.92V36.72H98.865V36.92ZM105.425 36.92H105.225V39H105.425H105.625V36.92H105.425ZM105.425 39V38.8H98.425V39V39.2H105.425V39ZM98.425 39V38.8C97.0555 38.8 95.945 37.6895 95.945 36.32H95.745H95.545C95.545 37.9105 96.8345 39.2 98.425 39.2V39ZM95.745 36.32H95.945V31.26H95.745H95.545V36.32H95.745ZM95.745 31.26H95.945C95.945 29.8905 97.0555 28.78 98.425 28.78V28.58V28.38C96.8345 28.38 95.545 29.6695 95.545 31.26H95.745ZM98.425 28.58V28.78H103.045V28.58V28.38H98.425V28.58ZM103.045 28.58V28.78C104.415 28.78 105.525 29.8905 105.525 31.26H105.725H105.925C105.925 29.6695 104.635 28.38 103.045 28.38V28.58ZM105.725 31.26H105.525V34.76H105.725H105.925V31.26H105.725ZM98.285 31.26H98.085V32.82H98.285H98.485V31.26H98.285ZM98.285 32.82V33.02H103.185V32.82V32.62H98.285V32.82ZM103.185 32.82H103.385V31.26H103.185H102.985V32.82H103.185ZM103.185 31.26H103.385C103.385 30.814 103.04 30.46 102.605 30.46V30.66V30.86C102.81 30.86 102.985 31.026 102.985 31.26H103.185ZM102.605 30.66V30.46H98.865V30.66V30.86H102.605V30.66ZM98.865 30.66V30.46C98.4301 30.46 98.085 30.814 98.085 31.26H98.285H98.485C98.485 31.026 98.6599 30.86 98.865 30.86V30.66ZM111.773 28.58V28.38H111.691L111.632 28.4386L111.773 28.58ZM114.613 28.58H114.813V28.38H114.613V28.58ZM114.613 30.66V30.86H114.813V30.66H114.613ZM110.593 39V39.2H110.793V39H110.593ZM108.053 39H107.853V39.2H108.053V39ZM108.053 28.58V28.38H107.853V28.58H108.053ZM110.593 28.58H110.793V28.38H110.593V28.58ZM110.593 29.76H110.393V30.2428L110.735 29.9014L110.593 29.76ZM111.773 28.58V28.78H114.613V28.58V28.38H111.773V28.58ZM114.613 28.58H114.413V30.66H114.613H114.813V28.58H114.613ZM114.613 30.66V30.46H111.173V30.66V30.86H114.613V30.66ZM111.173 30.66V30.46C110.739 30.46 110.393 30.814 110.393 31.26H110.593H110.793C110.793 31.026 110.968 30.86 111.173 30.86V30.66ZM110.593 31.26H110.393V39H110.593H110.793V31.26H110.593ZM110.593 39V38.8H108.053V39V39.2H110.593V39ZM108.053 39H108.253V28.58H108.053H107.853V39H108.053ZM108.053 28.58V28.78H110.593V28.58V28.38H108.053V28.58ZM110.593 28.58H110.393V29.76H110.593H110.793V28.58H110.593ZM110.593 29.76L110.735 29.9014L111.915 28.7214L111.773 28.58L111.632 28.4386L110.452 29.6186L110.593 29.76Z" fill="#002B03" mask="url(#path-2-outside-1_45_563)"/>
</g>
<defs>
<filter id="filter0_diiii_45_563" x="0" y="0" width="143" height="76" filterUnits="userSpaceOnUse" color-interpolation-filters="sRGB">
<feFlood flood-opacity="0" result="BackgroundImageFix"/>
<feColorMatrix in="SourceAlpha" type="matrix" values="0 0 0 0 0 0 0 0 0 0 0 0 0 0 0 0 0 0 127 0" result="hardAlpha"/>
<feOffset dy="4"/>
<feGaussianBlur stdDeviation="6"/>
<feComposite in2="hardAlpha" operator="out"/>
<feColorMatrix type="matrix" values="0 0 0 0 0.415686 0 0 0 0 0.772549 0 0 0 0 0.431373 0 0 0 0.9 0"/>
<feBlend mode="normal" in2="BackgroundImageFix" result="effect1_dropShadow_45_563"/>
<feBlend mode="normal" in="SourceGraphic" in2="effect1_dropShadow_45_563" result="shape"/>
<feColorMatrix in="SourceAlpha" type="matrix" values="0 0 0 0 0 0 0 0 0 0 0 0 0 0 0 0 0 0 127 0" result="hardAlpha"/>
<feOffset dx="4" dy="4"/>
<feGaussianBlur stdDeviation="6"/>
<feComposite in2="hardAlpha" operator="arithmetic" k2="-1" k3="1"/>
<feColorMatrix type="matrix" values="0 0 0 0 0 0 0 0 0 0.168627 0 0 0 0 0.0117647 0 0 0 0.5 0"/>
<feBlend mode="normal" in2="shape" result="effect2_innerShadow_45_563"/>
<feColorMatrix in="SourceAlpha" type="matrix" values="0 0 0 0 0 0 0 0 0 0 0 0 0 0 0 0 0 0 127 0" result="hardAlpha"/>
<feOffset dx="-4" dy="-4"/>
<feGaussianBlur stdDeviation="6"/>
<feComposite in2="hardAlpha" operator="arithmetic" k2="-1" k3="1"/>
<feColorMatrix type="matrix" values="0 0 0 0 0 0 0 0 0 0.121569 0 0 0 0 0.00784314 0 0 0 0.5 0"/>
<feBlend mode="normal" in2="effect2_innerShadow_45_563" result="effect3_innerShadow_45_563"/>
<feColorMatrix in="SourceAlpha" type="matrix" values="0 0 0 0 0 0 0 0 0 0 0 0 0 0 0 0 0 0 127 0" result="hardAlpha"/>
<feOffset dx="2" dy="2"/>
<feGaussianBlur stdDeviation="1"/>
<feComposite in2="hardAlpha" operator="arithmetic" k2="-1" k3="1"/>
<feColorMatrix type="matrix" values="0 0 0 0 0.533333 0 0 0 0 0.819608 0 0 0 0 0.545098 0 0 0 1 0"/>
<feBlend mode="normal" in2="effect3_innerShadow_45_563" result="effect4_innerShadow_45_563"/>
<feColorMatrix in="SourceAlpha" type="matrix" values="0 0 0 0 0 0 0 0 0 0 0 0 0 0 0 0 0 0 127 0" result="hardAlpha"/>
<feOffset dx="-2" dy="-2"/>
<feGaussianBlur stdDeviation="1"/>
<feComposite in2="hardAlpha" operator="arithmetic" k2="-1" k3="1"/>
<feColorMatrix type="matrix" values="0 0 0 0 0.533333 0 0 0 0 0.819608 0 0 0 0 0.545098 0 0 0 1 0"/>
<feBlend mode="normal" in2="effect4_innerShadow_45_563" result="effect5_innerShadow_45_563"/>
</filter>
<linearGradient id="paint0_linear_45_563" x1="59.179" y1="-30.5657" x2="114.821" y2="121.566" gradientUnits="userSpaceOnUse">
<stop offset="0.181684" stop-color="#6AC56E"/>
<stop offset="0.571961" stop-color="#002B03"/>
</linearGradient>
</defs>
</svg>
