<svg width="127" height="60" viewBox="0 0 127 60" fill="none" xmlns="http://www.w3.org/2000/svg">
<g filter="url(#filter0_diiii_45_565)">
<rect x="4" width="119" height="52" rx="12" fill="url(#paint0_linear_45_565)" shape-rendering="crispEdges"/>
<mask id="path-2-outside-1_45_565" maskUnits="userSpaceOnUse" x="21" y="16" width="86" height="19" fill="black">
<rect fill="white" x="21" y="16" width="86" height="19"/>
<path d="M32.4239 26.02H31.5239L35.7039 31H32.7239L28.5439 26.02H23.9439V31H21.4039V17H32.4239C33.9039 17 35.1039 18.2 35.1039 19.68V23.32C35.1039 24.82 33.9039 26.02 32.4239 26.02ZM23.9439 23.62H31.9839C32.3039 23.62 32.5839 23.36 32.5839 23.04V19.98C32.5839 19.64 32.3039 19.38 31.9839 19.38H23.9439V23.62ZM47.4906 26.76H40.0506V28.32C40.0506 28.64 40.3106 28.92 40.6306 28.92H47.1906V31H40.1906C38.7106 31 37.5106 29.8 37.5106 28.32V23.26C37.5106 21.78 38.7106 20.58 40.1906 20.58H44.8106C46.2906 20.58 47.4906 21.78 47.4906 23.26V26.76ZM40.0506 23.26V24.82H44.9506V23.26C44.9506 22.92 44.6906 22.66 44.3706 22.66H40.6306C40.3106 22.66 40.0506 22.92 40.0506 23.26ZM57.5591 20.58H60.0791V31.9C60.0791 33.38 58.8791 34.58 57.3991 34.58H50.5591V32.48H56.9591C57.2791 32.48 57.5591 32.22 57.5591 31.9V29.8L56.3591 31H52.3391C50.8591 31 49.6591 29.8 49.6591 28.32V23.26C49.6591 21.78 50.8591 20.58 52.3391 20.58H56.3591L57.5591 21.76V20.58ZM57.5591 28.32V23.26C57.5591 22.92 57.2791 22.66 56.9591 22.66H52.7791C52.4591 22.66 52.1991 22.92 52.1991 23.26V28.32C52.1991 28.64 52.4591 28.92 52.7791 28.92H56.9591C57.2791 28.92 57.5591 28.64 57.5591 28.32ZM65.1911 19.08H62.6511V17H65.1911V19.08ZM65.1911 31H62.6511V20.58H65.1911V31ZM74.7088 24.7C76.1888 24.7 77.3888 25.9 77.3888 27.38V28.32C77.3888 29.8 76.1888 31 74.7088 31H67.7088V28.92H74.2688C74.5888 28.92 74.8488 28.64 74.8488 28.32V27.46C74.8488 27.14 74.5888 26.86 74.2688 26.86H70.0888C68.6088 26.86 67.4088 25.66 67.4088 24.18V23.26C67.4088 21.78 68.6088 20.58 70.0888 20.58H76.9488V22.66H70.5288C70.2088 22.66 69.9488 22.92 69.9488 23.26V24.12C69.9488 24.44 70.2088 24.7 70.5288 24.7H74.7088ZM85.9852 22.66H82.7252V28.32C82.7252 28.64 82.9852 28.92 83.3052 28.92H85.4052V31H82.8652C81.3852 31 80.1852 29.8 80.1852 28.32V22.66H78.8452V20.58H80.1852V17.9H82.7252V20.58H85.9852V22.66ZM97.725 26.76H90.285V28.32C90.285 28.64 90.545 28.92 90.865 28.92H97.425V31H90.425C88.945 31 87.745 29.8 87.745 28.32V23.26C87.745 21.78 88.945 20.58 90.425 20.58H95.045C96.525 20.58 97.725 21.78 97.725 23.26V26.76ZM90.285 23.26V24.82H95.185V23.26C95.185 22.92 94.925 22.66 94.605 22.66H90.865C90.545 22.66 90.285 22.92 90.285 23.26ZM103.773 20.58H106.613V22.66H103.173C102.853 22.66 102.593 22.92 102.593 23.26V31H100.053V20.58H102.593V21.76L103.773 20.58Z"/>
</mask>
<path d="M32.4239 26.02H31.5239L35.7039 31H32.7239L28.5439 26.02H23.9439V31H21.4039V17H32.4239C33.9039 17 35.1039 18.2 35.1039 19.68V23.32C35.1039 24.82 33.9039 26.02 32.4239 26.02ZM23.9439 23.62H31.9839C32.3039 23.62 32.5839 23.36 32.5839 23.04V19.98C32.5839 19.64 32.3039 19.38 31.9839 19.38H23.9439V23.62ZM47.4906 26.76H40.0506V28.32C40.0506 28.64 40.3106 28.92 40.6306 28.92H47.1906V31H40.1906C38.7106 31 37.5106 29.8 37.5106 28.32V23.26C37.5106 21.78 38.7106 20.58 40.1906 20.58H44.8106C46.2906 20.58 47.4906 21.78 47.4906 23.26V26.76ZM40.0506 23.26V24.82H44.9506V23.26C44.9506 22.92 44.6906 22.66 44.3706 22.66H40.6306C40.3106 22.66 40.0506 22.92 40.0506 23.26ZM57.5591 20.58H60.0791V31.9C60.0791 33.38 58.8791 34.58 57.3991 34.58H50.5591V32.48H56.9591C57.2791 32.48 57.5591 32.22 57.5591 31.9V29.8L56.3591 31H52.3391C50.8591 31 49.6591 29.8 49.6591 28.32V23.26C49.6591 21.78 50.8591 20.58 52.3391 20.58H56.3591L57.5591 21.76V20.58ZM57.5591 28.32V23.26C57.5591 22.92 57.2791 22.66 56.9591 22.66H52.7791C52.4591 22.66 52.1991 22.92 52.1991 23.26V28.32C52.1991 28.64 52.4591 28.92 52.7791 28.92H56.9591C57.2791 28.92 57.5591 28.64 57.5591 28.32ZM65.1911 19.08H62.6511V17H65.1911V19.08ZM65.1911 31H62.6511V20.58H65.1911V31ZM74.7088 24.7C76.1888 24.7 77.3888 25.9 77.3888 27.38V28.32C77.3888 29.8 76.1888 31 74.7088 31H67.7088V28.92H74.2688C74.5888 28.92 74.8488 28.64 74.8488 28.32V27.46C74.8488 27.14 74.5888 26.86 74.2688 26.86H70.0888C68.6088 26.86 67.4088 25.66 67.4088 24.18V23.26C67.4088 21.78 68.6088 20.58 70.0888 20.58H76.9488V22.66H70.5288C70.2088 22.66 69.9488 22.92 69.9488 23.26V24.12C69.9488 24.44 70.2088 24.7 70.5288 24.7H74.7088ZM85.9852 22.66H82.7252V28.32C82.7252 28.64 82.9852 28.92 83.3052 28.92H85.4052V31H82.8652C81.3852 31 80.1852 29.8 80.1852 28.32V22.66H78.8452V20.58H80.1852V17.9H82.7252V20.58H85.9852V22.66ZM97.725 26.76H90.285V28.32C90.285 28.64 90.545 28.92 90.865 28.92H97.425V31H90.425C88.945 31 87.745 29.8 87.745 28.32V23.26C87.745 21.78 88.945 20.58 90.425 20.58H95.045C96.525 20.58 97.725 21.78 97.725 23.26V26.76ZM90.285 23.26V24.82H95.185V23.26C95.185 22.92 94.925 22.66 94.605 22.66H90.865C90.545 22.66 90.285 22.92 90.285 23.26ZM103.773 20.58H106.613V22.66H103.173C102.853 22.66 102.593 22.92 102.593 23.26V31H100.053V20.58H102.593V21.76L103.773 20.58Z" fill="#F9FAFB"/>
<path d="M31.5239 26.02V25.82H31.0949L31.3707 26.1486L31.5239 26.02ZM35.7039 31V31.2H36.1329L35.8571 30.8714L35.7039 31ZM32.7239 31L32.5707 31.1286L32.6307 31.2H32.7239V31ZM28.5439 26.02L28.6971 25.8914L28.6371 25.82H28.5439V26.02ZM23.9439 26.02V25.82H23.7439V26.02H23.9439ZM23.9439 31V31.2H24.1439V31H23.9439ZM21.4039 31H21.2039V31.2H21.4039V31ZM21.4039 17V16.8H21.2039V17H21.4039ZM23.9439 23.62H23.7439V23.82H23.9439V23.62ZM23.9439 19.38V19.18H23.7439V19.38H23.9439ZM32.4239 26.02V25.82H31.5239V26.02V26.22H32.4239V26.02ZM31.5239 26.02L31.3707 26.1486L35.5507 31.1286L35.7039 31L35.8571 30.8714L31.6771 25.8914L31.5239 26.02ZM35.7039 31V30.8H32.7239V31V31.2H35.7039V31ZM32.7239 31L32.8771 30.8714L28.6971 25.8914L28.5439 26.02L28.3907 26.1486L32.5707 31.1286L32.7239 31ZM28.5439 26.02V25.82H23.9439V26.02V26.22H28.5439V26.02ZM23.9439 26.02H23.7439V31H23.9439H24.1439V26.02H23.9439ZM23.9439 31V30.8H21.4039V31V31.2H23.9439V31ZM21.4039 31H21.6039V17H21.4039H21.2039V31H21.4039ZM21.4039 17V17.2H32.4239V17V16.8H21.4039V17ZM32.4239 17V17.2C33.7935 17.2 34.9039 18.3105 34.9039 19.68H35.1039H35.3039C35.3039 18.0895 34.0144 16.8 32.4239 16.8V17ZM35.1039 19.68H34.9039V23.32H35.1039H35.3039V19.68H35.1039ZM35.1039 23.32H34.9039C34.9039 24.7105 33.7925 25.82 32.4239 25.82V26.02V26.22C34.0153 26.22 35.3039 24.9295 35.3039 23.32H35.1039ZM23.9439 23.62V23.82H31.9839V23.62V23.42H23.9439V23.62ZM31.9839 23.62V23.82C32.4055 23.82 32.7839 23.4791 32.7839 23.04H32.5839H32.3839C32.3839 23.2409 32.2023 23.42 31.9839 23.42V23.62ZM32.5839 23.04H32.7839V19.98H32.5839H32.3839V23.04H32.5839ZM32.5839 19.98H32.7839C32.7839 19.5252 32.41 19.18 31.9839 19.18V19.38V19.58C32.1978 19.58 32.3839 19.7548 32.3839 19.98H32.5839ZM31.9839 19.38V19.18H23.9439V19.38V19.58H31.9839V19.38ZM23.9439 19.38H23.7439V23.62H23.9439H24.1439V19.38H23.9439ZM47.4906 26.76V26.96H47.6906V26.76H47.4906ZM40.0506 26.76V26.56H39.8506V26.76H40.0506ZM47.1906 28.92H47.3906V28.72H47.1906V28.92ZM47.1906 31V31.2H47.3906V31H47.1906ZM40.0506 24.82H39.8506V25.02H40.0506V24.82ZM44.9506 24.82V25.02H45.1506V24.82H44.9506ZM47.4906 26.76V26.56H40.0506V26.76V26.96H47.4906V26.76ZM40.0506 26.76H39.8506V28.32H40.0506H40.2506V26.76H40.0506ZM40.0506 28.32H39.8506C39.8506 28.7416 40.1915 29.12 40.6306 29.12V28.92V28.72C40.4297 28.72 40.2506 28.5384 40.2506 28.32H40.0506ZM40.6306 28.92V29.12H47.1906V28.92V28.72H40.6306V28.92ZM47.1906 28.92H46.9906V31H47.1906H47.3906V28.92H47.1906ZM47.1906 31V30.8H40.1906V31V31.2H47.1906V31ZM40.1906 31V30.8C38.8211 30.8 37.7106 29.6895 37.7106 28.32H37.5106H37.3106C37.3106 29.9105 38.6002 31.2 40.1906 31.2V31ZM37.5106 28.32H37.7106V23.26H37.5106H37.3106V28.32H37.5106ZM37.5106 23.26H37.7106C37.7106 21.8905 38.8211 20.78 40.1906 20.78V20.58V20.38C38.6002 20.38 37.3106 21.6695 37.3106 23.26H37.5106ZM40.1906 20.58V20.78H44.8106V20.58V20.38H40.1906V20.58ZM44.8106 20.58V20.78C46.1802 20.78 47.2906 21.8905 47.2906 23.26H47.4906H47.6906C47.6906 21.6695 46.4011 20.38 44.8106 20.38V20.58ZM47.4906 23.26H47.2906V26.76H47.4906H47.6906V23.26H47.4906ZM40.0506 23.26H39.8506V24.82H40.0506H40.2506V23.26H40.0506ZM40.0506 24.82V25.02H44.9506V24.82V24.62H40.0506V24.82ZM44.9506 24.82H45.1506V23.26H44.9506H44.7506V24.82H44.9506ZM44.9506 23.26H45.1506C45.1506 22.814 44.8055 22.46 44.3706 22.46V22.66V22.86C44.5758 22.86 44.7506 23.026 44.7506 23.26H44.9506ZM44.3706 22.66V22.46H40.6306V22.66V22.86H44.3706V22.66ZM40.6306 22.66V22.46C40.1958 22.46 39.8506 22.814 39.8506 23.26H40.0506H40.2506C40.2506 23.026 40.4255 22.86 40.6306 22.86V22.66ZM57.5591 20.58V20.38H57.3591V20.58H57.5591ZM60.0791 20.58H60.2791V20.38H60.0791V20.58ZM50.5591 34.58H50.3591V34.78H50.5591V34.58ZM50.5591 32.48V32.28H50.3591V32.48H50.5591ZM57.5591 29.8H57.7591V29.3172L57.4176 29.6586L57.5591 29.8ZM56.3591 31V31.2H56.4419L56.5005 31.1414L56.3591 31ZM56.3591 20.58L56.4993 20.4374L56.4409 20.38H56.3591V20.58ZM57.5591 21.76L57.4188 21.9026L57.7591 22.2372V21.76H57.5591ZM57.5591 20.58V20.78H60.0791V20.58V20.38H57.5591V20.58ZM60.0791 20.58H59.8791V31.9H60.0791H60.2791V20.58H60.0791ZM60.0791 31.9H59.8791C59.8791 33.2695 58.7686 34.38 57.3991 34.38V34.58V34.78C58.9895 34.78 60.2791 33.4905 60.2791 31.9H60.0791ZM57.3991 34.58V34.38H50.5591V34.58V34.78H57.3991V34.58ZM50.5591 34.58H50.7591V32.48H50.5591H50.3591V34.58H50.5591ZM50.5591 32.48V32.68H56.9591V32.48V32.28H50.5591V32.48ZM56.9591 32.48V32.68C57.3806 32.68 57.7591 32.3391 57.7591 31.9H57.5591H57.3591C57.3591 32.1009 57.1775 32.28 56.9591 32.28V32.48ZM57.5591 31.9H57.7591V29.8H57.5591H57.3591V31.9H57.5591ZM57.5591 29.8L57.4176 29.6586L56.2176 30.8586L56.3591 31L56.5005 31.1414L57.7005 29.9414L57.5591 29.8ZM56.3591 31V30.8H52.3391V31V31.2H56.3591V31ZM52.3391 31V30.8C50.9695 30.8 49.8591 29.6895 49.8591 28.32H49.6591H49.4591C49.4591 29.9105 50.7486 31.2 52.3391 31.2V31ZM49.6591 28.32H49.8591V23.26H49.6591H49.4591V28.32H49.6591ZM49.6591 23.26H49.8591C49.8591 21.8905 50.9695 20.78 52.3391 20.78V20.58V20.38C50.7486 20.38 49.4591 21.6695 49.4591 23.26H49.6591ZM52.3391 20.58V20.78H56.3591V20.58V20.38H52.3391V20.58ZM56.3591 20.58L56.2188 20.7226L57.4188 21.9026L57.5591 21.76L57.6993 21.6174L56.4993 20.4374L56.3591 20.58ZM57.5591 21.76H57.7591V20.58H57.5591H57.3591V21.76H57.5591ZM57.5591 28.32H57.7591V23.26H57.5591H57.3591V28.32H57.5591ZM57.5591 23.26H57.7591C57.7591 22.8052 57.3852 22.46 56.9591 22.46V22.66V22.86C57.173 22.86 57.3591 23.0348 57.3591 23.26H57.5591ZM56.9591 22.66V22.46H52.7791V22.66V22.86H56.9591V22.66ZM52.7791 22.66V22.46C52.3442 22.46 51.9991 22.814 51.9991 23.26H52.1991H52.3991C52.3991 23.026 52.5739 22.86 52.7791 22.86V22.66ZM52.1991 23.26H51.9991V28.32H52.1991H52.3991V23.26H52.1991ZM52.1991 28.32H51.9991C51.9991 28.7416 52.3399 29.12 52.7791 29.12V28.92V28.72C52.5782 28.72 52.3991 28.5384 52.3991 28.32H52.1991ZM52.7791 28.92V29.12H56.9591V28.92V28.72H52.7791V28.92ZM56.9591 28.92V29.12C57.3895 29.12 57.7591 28.7505 57.7591 28.32H57.5591H57.3591C57.3591 28.5295 57.1686 28.72 56.9591 28.72V28.92ZM65.1911 19.08V19.28H65.3911V19.08H65.1911ZM62.6511 19.08H62.4511V19.28H62.6511V19.08ZM62.6511 17V16.8H62.4511V17H62.6511ZM65.1911 17H65.3911V16.8H65.1911V17ZM65.1911 31V31.2H65.3911V31H65.1911ZM62.6511 31H62.4511V31.2H62.6511V31ZM62.6511 20.58V20.38H62.4511V20.58H62.6511ZM65.1911 20.58H65.3911V20.38H65.1911V20.58ZM65.1911 19.08V18.88H62.6511V19.08V19.28H65.1911V19.08ZM62.6511 19.08H62.8511V17H62.6511H62.4511V19.08H62.6511ZM62.6511 17V17.2H65.1911V17V16.8H62.6511V17ZM65.1911 17H64.9911V19.08H65.1911H65.3911V17H65.1911ZM65.1911 31V30.8H62.6511V31V31.2H65.1911V31ZM62.6511 31H62.8511V20.58H62.6511H62.4511V31H62.6511ZM62.6511 20.58V20.78H65.1911V20.58V20.38H62.6511V20.58ZM65.1911 20.58H64.9911V31H65.1911H65.3911V20.58H65.1911ZM67.7088 31H67.5088V31.2H67.7088V31ZM67.7088 28.92V28.72H67.5088V28.92H67.7088ZM76.9487 20.58H77.1488V20.38H76.9487V20.58ZM76.9487 22.66V22.86H77.1488V22.66H76.9487ZM74.7088 24.7V24.9C76.0783 24.9 77.1888 26.0105 77.1888 27.38H77.3887H77.5887C77.5887 25.7895 76.2992 24.5 74.7088 24.5V24.7ZM77.3887 27.38H77.1888V28.32H77.3887H77.5887V27.38H77.3887ZM77.3887 28.32H77.1888C77.1888 29.6895 76.0783 30.8 74.7088 30.8V31V31.2C76.2992 31.2 77.5887 29.9105 77.5887 28.32H77.3887ZM74.7088 31V30.8H67.7088V31V31.2H74.7088V31ZM67.7088 31H67.9087V28.92H67.7088H67.5088V31H67.7088ZM67.7088 28.92V29.12H74.2687V28.92V28.72H67.7088V28.92ZM74.2687 28.92V29.12C74.7079 29.12 75.0488 28.7416 75.0488 28.32H74.8488H74.6488C74.6488 28.5384 74.4696 28.72 74.2687 28.72V28.92ZM74.8488 28.32H75.0488V27.46H74.8488H74.6488V28.32H74.8488ZM74.8488 27.46H75.0488C75.0488 27.0384 74.7079 26.66 74.2687 26.66V26.86V27.06C74.4696 27.06 74.6488 27.2416 74.6488 27.46H74.8488ZM74.2687 26.86V26.66H70.0887V26.86V27.06H74.2687V26.86ZM70.0887 26.86V26.66C68.7192 26.66 67.6087 25.5495 67.6087 24.18H67.4087H67.2088C67.2088 25.7705 68.4983 27.06 70.0887 27.06V26.86ZM67.4087 24.18H67.6087V23.26H67.4087H67.2088V24.18H67.4087ZM67.4087 23.26H67.6087C67.6087 21.8905 68.7192 20.78 70.0887 20.78V20.58V20.38C68.4983 20.38 67.2088 21.6695 67.2088 23.26H67.4087ZM70.0887 20.58V20.78H76.9487V20.58V20.38H70.0887V20.58ZM76.9487 20.58H76.7488V22.66H76.9487H77.1488V20.58H76.9487ZM76.9487 22.66V22.46H70.5288V22.66V22.86H76.9487V22.66ZM70.5288 22.66V22.46C70.0939 22.46 69.7487 22.814 69.7487 23.26H69.9487H70.1488C70.1488 23.026 70.3236 22.86 70.5288 22.86V22.66ZM69.9487 23.26H69.7487V24.12H69.9487H70.1488V23.26H69.9487ZM69.9487 24.12H69.7487C69.7487 24.5505 70.0983 24.9 70.5288 24.9V24.7V24.5C70.3192 24.5 70.1488 24.3295 70.1488 24.12H69.9487ZM70.5288 24.7V24.9H74.7088V24.7V24.5H70.5288V24.7ZM85.9852 22.66V22.86H86.1852V22.66H85.9852ZM82.7252 22.66V22.46H82.5252V22.66H82.7252ZM85.4052 28.92H85.6052V28.72H85.4052V28.92ZM85.4052 31V31.2H85.6052V31H85.4052ZM80.1852 22.66H80.3852V22.46H80.1852V22.66ZM78.8452 22.66H78.6452V22.86H78.8452V22.66ZM78.8452 20.58V20.38H78.6452V20.58H78.8452ZM80.1852 20.58V20.78H80.3852V20.58H80.1852ZM80.1852 17.9V17.7H79.9852V17.9H80.1852ZM82.7252 17.9H82.9252V17.7H82.7252V17.9ZM82.7252 20.58H82.5252V20.78H82.7252V20.58ZM85.9852 20.58H86.1852V20.38H85.9852V20.58ZM85.9852 22.66V22.46H82.7252V22.66V22.86H85.9852V22.66ZM82.7252 22.66H82.5252V28.32H82.7252H82.9252V22.66H82.7252ZM82.7252 28.32H82.5252C82.5252 28.7416 82.866 29.12 83.3052 29.12V28.92V28.72C83.1043 28.72 82.9252 28.5384 82.9252 28.32H82.7252ZM83.3052 28.92V29.12H85.4052V28.92V28.72H83.3052V28.92ZM85.4052 28.92H85.2052V31H85.4052H85.6052V28.92H85.4052ZM85.4052 31V30.8H82.8652V31V31.2H85.4052V31ZM82.8652 31V30.8C81.4956 30.8 80.3852 29.6895 80.3852 28.32H80.1852H79.9852C79.9852 29.9105 81.2747 31.2 82.8652 31.2V31ZM80.1852 28.32H80.3852V22.66H80.1852H79.9852V28.32H80.1852ZM80.1852 22.66V22.46H78.8452V22.66V22.86H80.1852V22.66ZM78.8452 22.66H79.0452V20.58H78.8452H78.6452V22.66H78.8452ZM78.8452 20.58V20.78H80.1852V20.58V20.38H78.8452V20.58ZM80.1852 20.58H80.3852V17.9H80.1852H79.9852V20.58H80.1852ZM80.1852 17.9V18.1H82.7252V17.9V17.7H80.1852V17.9ZM82.7252 17.9H82.5252V20.58H82.7252H82.9252V17.9H82.7252ZM82.7252 20.58V20.78H85.9852V20.58V20.38H82.7252V20.58ZM85.9852 20.58H85.7852V22.66H85.9852H86.1852V20.58H85.9852ZM97.725 26.76V26.96H97.925V26.76H97.725ZM90.285 26.76V26.56H90.085V26.76H90.285ZM97.425 28.92H97.625V28.72H97.425V28.92ZM97.425 31V31.2H97.625V31H97.425ZM90.285 24.82H90.085V25.02H90.285V24.82ZM95.185 24.82V25.02H95.385V24.82H95.185ZM97.725 26.76V26.56H90.285V26.76V26.96H97.725V26.76ZM90.285 26.76H90.085V28.32H90.285H90.485V26.76H90.285ZM90.285 28.32H90.085C90.085 28.7416 90.4259 29.12 90.865 29.12V28.92V28.72C90.6641 28.72 90.485 28.5384 90.485 28.32H90.285ZM90.865 28.92V29.12H97.425V28.92V28.72H90.865V28.92ZM97.425 28.92H97.225V31H97.425H97.625V28.92H97.425ZM97.425 31V30.8H90.425V31V31.2H97.425V31ZM90.425 31V30.8C89.0555 30.8 87.945 29.6895 87.945 28.32H87.745H87.545C87.545 29.9105 88.8345 31.2 90.425 31.2V31ZM87.745 28.32H87.945V23.26H87.745H87.545V28.32H87.745ZM87.745 23.26H87.945C87.945 21.8905 89.0555 20.78 90.425 20.78V20.58V20.38C88.8345 20.38 87.545 21.6695 87.545 23.26H87.745ZM90.425 20.58V20.78H95.045V20.58V20.38H90.425V20.58ZM95.045 20.58V20.78C96.4145 20.78 97.525 21.8905 97.525 23.26H97.725H97.925C97.925 21.6695 96.6355 20.38 95.045 20.38V20.58ZM97.725 23.26H97.525V26.76H97.725H97.925V23.26H97.725ZM90.285 23.26H90.085V24.82H90.285H90.485V23.26H90.285ZM90.285 24.82V25.02H95.185V24.82V24.62H90.285V24.82ZM95.185 24.82H95.385V23.26H95.185H94.985V24.82H95.185ZM95.185 23.26H95.385C95.385 22.814 95.0399 22.46 94.605 22.46V22.66V22.86C94.8101 22.86 94.985 23.026 94.985 23.26H95.185ZM94.605 22.66V22.46H90.865V22.66V22.86H94.605V22.66ZM90.865 22.66V22.46C90.4301 22.46 90.085 22.814 90.085 23.26H90.285H90.485C90.485 23.026 90.6599 22.86 90.865 22.86V22.66ZM103.773 20.58V20.38H103.691L103.632 20.4386L103.773 20.58ZM106.613 20.58H106.813V20.38H106.613V20.58ZM106.613 22.66V22.86H106.813V22.66H106.613ZM102.593 31V31.2H102.793V31H102.593ZM100.053 31H99.8534V31.2H100.053V31ZM100.053 20.58V20.38H99.8534V20.58H100.053ZM102.593 20.58H102.793V20.38H102.593V20.58ZM102.593 21.76H102.393V22.2428L102.735 21.9014L102.593 21.76ZM103.773 20.58V20.78H106.613V20.58V20.38H103.773V20.58ZM106.613 20.58H106.413V22.66H106.613H106.813V20.58H106.613ZM106.613 22.66V22.46H103.173V22.66V22.86H106.613V22.66ZM103.173 22.66V22.46C102.739 22.46 102.393 22.814 102.393 23.26H102.593H102.793C102.793 23.026 102.968 22.86 103.173 22.86V22.66ZM102.593 23.26H102.393V31H102.593H102.793V23.26H102.593ZM102.593 31V30.8H100.053V31V31.2H102.593V31ZM100.053 31H100.253V20.58H100.053H99.8534V31H100.053ZM100.053 20.58V20.78H102.593V20.58V20.38H100.053V20.58ZM102.593 20.58H102.393V21.76H102.593H102.793V20.58H102.593ZM102.593 21.76L102.735 21.9014L103.915 20.7214L103.773 20.58L103.632 20.4386L102.452 21.6186L102.593 21.76Z" fill="#002B03" mask="url(#path-2-outside-1_45_565)"/>
</g>
<defs>
<filter id="filter0_diiii_45_565" x="0" y="-4" width="127" height="64" filterUnits="userSpaceOnUse" color-interpolation-filters="sRGB">
<feFlood flood-opacity="0" result="BackgroundImageFix"/>
<feColorMatrix in="SourceAlpha" type="matrix" values="0 0 0 0 0 0 0 0 0 0 0 0 0 0 0 0 0 0 127 0" result="hardAlpha"/>
<feOffset dy="4"/>
<feGaussianBlur stdDeviation="2"/>
<feComposite in2="hardAlpha" operator="out"/>
<feColorMatrix type="matrix" values="0 0 0 0 0 0 0 0 0 0 0 0 0 0 0 0 0 0 0.25 0"/>
<feBlend mode="normal" in2="BackgroundImageFix" result="effect1_dropShadow_45_565"/>
<feBlend mode="normal" in="SourceGraphic" in2="effect1_dropShadow_45_565" result="shape"/>
<feColorMatrix in="SourceAlpha" type="matrix" values="0 0 0 0 0 0 0 0 0 0 0 0 0 0 0 0 0 0 127 0" result="hardAlpha"/>
<feOffset dx="4" dy="4"/>
<feGaussianBlur stdDeviation="6"/>
<feComposite in2="hardAlpha" operator="arithmetic" k2="-1" k3="1"/>
<feColorMatrix type="matrix" values="0 0 0 0 0 0 0 0 0 0.168627 0 0 0 0 0.0117647 0 0 0 0.5 0"/>
<feBlend mode="normal" in2="shape" result="effect2_innerShadow_45_565"/>
<feColorMatrix in="SourceAlpha" type="matrix" values="0 0 0 0 0 0 0 0 0 0 0 0 0 0 0 0 0 0 127 0" result="hardAlpha"/>
<feOffset dx="-4" dy="-4"/>
<feGaussianBlur stdDeviation="6"/>
<feComposite in2="hardAlpha" operator="arithmetic" k2="-1" k3="1"/>
<feColorMatrix type="matrix" values="0 0 0 0 0 0 0 0 0 0.121569 0 0 0 0 0.00784314 0 0 0 0.5 0"/>
<feBlend mode="normal" in2="effect2_innerShadow_45_565" result="effect3_innerShadow_45_565"/>
<feColorMatrix in="SourceAlpha" type="matrix" values="0 0 0 0 0 0 0 0 0 0 0 0 0 0 0 0 0 0 127 0" result="hardAlpha"/>
<feOffset dx="2" dy="2"/>
<feGaussianBlur stdDeviation="1"/>
<feComposite in2="hardAlpha" operator="arithmetic" k2="-1" k3="1"/>
<feColorMatrix type="matrix" values="0 0 0 0 0.533333 0 0 0 0 0.819608 0 0 0 0 0.545098 0 0 0 1 0"/>
<feBlend mode="normal" in2="effect3_innerShadow_45_565" result="effect4_innerShadow_45_565"/>
<feColorMatrix in="SourceAlpha" type="matrix" values="0 0 0 0 0 0 0 0 0 0 0 0 0 0 0 0 0 0 127 0" result="hardAlpha"/>
<feOffset dx="-2" dy="-2"/>
<feGaussianBlur stdDeviation="1"/>
<feComposite in2="hardAlpha" operator="arithmetic" k2="-1" k3="1"/>
<feColorMatrix type="matrix" values="0 0 0 0 0.533333 0 0 0 0 0.819608 0 0 0 0 0.545098 0 0 0 1 0"/>
<feBlend mode="normal" in2="effect4_innerShadow_45_565" result="effect5_innerShadow_45_565"/>
</filter>
<linearGradient id="paint0_linear_45_565" x1="51.179" y1="-38.5657" x2="106.821" y2="113.566" gradientUnits="userSpaceOnUse">
<stop offset="0.181684" stop-color="#6AC56E"/>
<stop offset="0.571961" stop-color="#002B03"/>
</linearGradient>
</defs>
</svg>
